<!--<svg width="7" height="12" viewBox="0 0 7 12" fill="none" xmlns="http://www.w3.org/2000/svg">
<path d="M0.300013 0.774999C0.483346 0.591666 0.716679 0.5 1.00001 0.5C1.28335 0.5 1.51668 0.591666 1.70001 0.774999L6.30001 5.375C6.40001 5.475 6.47101 5.58333 6.51301 5.7C6.55435 5.81667 6.57501 5.94167 6.57501 6.075C6.57501 6.20833 6.55001 6.33767 6.50001 6.463C6.45001 6.58767 6.38335 6.69167 6.30001 6.775L1.70001 11.375C1.51668 11.5583 1.28335 11.65 1.00001 11.65C0.716679 11.65 0.483346 11.5583 0.300012 11.375C0.116679 11.1917 0.0250116 10.9583 0.0250116 10.675C0.0250116 10.3917 0.116679 10.1583 0.300012 9.975L4.20001 6.075L0.300013 2.175C0.116679 1.99167 0.025012 1.75833 0.025012 1.475C0.025012 1.19167 0.116679 0.958333 0.300013 0.774999Z" fill="#141414"/>
</svg>-->


<svg width="7" height="12" viewBox="0 0 7 12" fill="none" xmlns="http://www.w3.org/2000/svg">
	<path d="M6.69999 11.225C6.51666 11.4083 6.28332 11.5 5.99999 11.5C5.71666 11.5 5.48332 11.4083 5.29999 11.225L0.699986 6.625C0.599986 6.525 0.528986 6.41667 0.486986 6.3C0.445653 6.18333 0.424987 6.05833 0.424987 5.925C0.424987 5.79167 0.449986 5.66233 0.499986 5.537C0.549986 5.41233 0.616653 5.30833 0.699986 5.225L5.29999 0.625C5.48332 0.441667 5.71666 0.35 5.99999 0.35C6.28332 0.35 6.51666 0.441667 6.69999 0.625C6.88332 0.808333 6.97499 1.04167 6.97499 1.325C6.97499 1.60833 6.88332 1.84167 6.69999 2.025L2.79999 5.925L6.69999 9.825C6.88332 10.0083 6.97499 10.2417 6.97499 10.525C6.97499 10.8083 6.88332 11.0417 6.69999 11.225Z" fill="#141414"/>
</svg>
