<svg width="18" height="21" viewBox="0 0 18 21" fill="none" xmlns="http://www.w3.org/2000/svg">
<path d="M9 12.5938C8.71667 12.5938 8.47933 12.4978 8.288 12.3057C8.096 12.1144 8 11.8771 8 11.5938C8 11.3104 8.096 11.0728 8.288 10.8807C8.47933 10.6894 8.71667 10.5938 9 10.5938C9.28333 10.5938 9.521 10.6894 9.713 10.8807C9.90433 11.0728 10 11.3104 10 11.5938C10 11.8771 9.90433 12.1144 9.713 12.3057C9.521 12.4978 9.28333 12.5938 9 12.5938ZM5 12.5938C4.71667 12.5938 4.479 12.4978 4.287 12.3057C4.09567 12.1144 4 11.8771 4 11.5938C4 11.3104 4.09567 11.0728 4.287 10.8807C4.479 10.6894 4.71667 10.5938 5 10.5938C5.28333 10.5938 5.521 10.6894 5.713 10.8807C5.90433 11.0728 6 11.3104 6 11.5938C6 11.8771 5.90433 12.1144 5.713 12.3057C5.521 12.4978 5.28333 12.5938 5 12.5938ZM13 12.5938C12.7167 12.5938 12.4793 12.4978 12.288 12.3057C12.096 12.1144 12 11.8771 12 11.5938C12 11.3104 12.096 11.0728 12.288 10.8807C12.4793 10.6894 12.7167 10.5938 13 10.5938C13.2833 10.5938 13.5207 10.6894 13.712 10.8807C13.904 11.0728 14 11.3104 14 11.5938C14 11.8771 13.904 12.1144 13.712 12.3057C13.5207 12.4978 13.2833 12.5938 13 12.5938ZM9 16.5938C8.71667 16.5938 8.47933 16.4978 8.288 16.3057C8.096 16.1144 8 15.8771 8 15.5938C8 15.3104 8.096 15.0731 8.288 14.8818C8.47933 14.6897 8.71667 14.5938 9 14.5938C9.28333 14.5938 9.521 14.6897 9.713 14.8818C9.90433 15.0731 10 15.3104 10 15.5938C10 15.8771 9.90433 16.1144 9.713 16.3057C9.521 16.4978 9.28333 16.5938 9 16.5938ZM5 16.5938C4.71667 16.5938 4.479 16.4978 4.287 16.3057C4.09567 16.1144 4 15.8771 4 15.5938C4 15.3104 4.09567 15.0731 4.287 14.8818C4.479 14.6897 4.71667 14.5938 5 14.5938C5.28333 14.5938 5.521 14.6897 5.713 14.8818C5.90433 15.0731 6 15.3104 6 15.5938C6 15.8771 5.90433 16.1144 5.713 16.3057C5.521 16.4978 5.28333 16.5938 5 16.5938ZM13 16.5938C12.7167 16.5938 12.4793 16.4978 12.288 16.3057C12.096 16.1144 12 15.8771 12 15.5938C12 15.3104 12.096 15.0731 12.288 14.8818C12.4793 14.6897 12.7167 14.5938 13 14.5938C13.2833 14.5938 13.5207 14.6897 13.712 14.8818C13.904 15.0731 14 15.3104 14 15.5938C14 15.8771 13.904 16.1144 13.712 16.3057C13.5207 16.4978 13.2833 16.5938 13 16.5938ZM2 20.5938C1.45 20.5938 0.979 20.3981 0.587 20.0068C0.195667 19.6147 0 19.1437 0 18.5938V4.59375C0 4.04375 0.195667 3.57308 0.587 3.18175C0.979 2.78975 1.45 2.59375 2 2.59375H3V1.59375C3 1.31042 3.09567 1.07275 3.287 0.88075C3.479 0.689417 3.71667 0.59375 4 0.59375C4.28333 0.59375 4.521 0.689417 4.713 0.88075C4.90433 1.07275 5 1.31042 5 1.59375V2.59375H13V1.59375C13 1.31042 13.096 1.07275 13.288 0.88075C13.4793 0.689417 13.7167 0.59375 14 0.59375C14.2833 0.59375 14.5207 0.689417 14.712 0.88075C14.904 1.07275 15 1.31042 15 1.59375V2.59375H16C16.55 2.59375 17.021 2.78975 17.413 3.18175C17.8043 3.57308 18 4.04375 18 4.59375V18.5938C18 19.1437 17.8043 19.6147 17.413 20.0068C17.021 20.3981 16.55 20.5938 16 20.5938H2ZM2 18.5938H16V8.59375H2V18.5938ZM2 6.59375H16V4.59375H2V6.59375ZM2 6.59375V4.59375V6.59375Z" fill="black"/>
</svg>
