<svg width="93" height="100" viewBox="0 0 93 100" fill="none" xmlns="http://www.w3.org/2000/svg">
<path d="M60.4787 70.9268L68.4318 95.1673C68.6269 95.7622 68.3157 96.4075 67.7375 96.6083L58.1422 99.94C57.564 100.141 56.9367 99.8216 56.7416 99.2267L48.7024 74.7215C46.2424 75.144 43.7047 75.3632 41.112 75.3632C18.4068 75.3632 0 58.4919 0 37.6817C0 16.8714 18.408 0 41.1131 0C63.8184 0 82.2252 16.8714 82.2252 37.6817C82.2252 52.0736 73.421 64.5825 60.4787 70.9268Z" fill="#A52B17"/>
<path d="M41.1134 70.8503C61.1005 70.8503 77.3032 56.0001 77.3032 37.6815C77.3032 19.3628 61.1005 4.5127 41.1134 4.5127C21.1263 4.5127 4.92358 19.3628 4.92358 37.6815C4.92358 56.0001 21.1263 70.8503 41.1134 70.8503Z" fill="white"/>
<path d="M41.1133 67.5091C59.0867 67.5091 73.6569 54.1549 73.6569 37.6818C73.6569 21.2086 59.0867 7.85449 41.1133 7.85449C23.1399 7.85449 8.56958 21.2086 8.56958 37.6818C8.56958 54.1549 23.1399 67.5091 41.1133 67.5091Z" fill="#A52B17"/>
<path d="M14.9141 34.2269V25.2258H17.9222C19.0486 25.2258 19.8853 25.4462 20.4347 25.8872C20.9841 26.3281 21.2583 27.0044 21.2583 27.9158C21.2583 28.5008 21.1171 28.9873 20.8345 29.3791C20.5521 29.7695 20.1463 30.0404 19.6171 30.1895L21.5863 34.2281H19.7895L18.0766 30.5761H16.5491V34.2281H14.9141V34.2269ZM16.5491 29.1486H18.0059C18.5434 29.1486 18.9384 29.0477 19.191 28.847C19.4436 28.6449 19.5705 28.3296 19.5705 27.8973C19.5705 27.4699 19.4436 27.1558 19.191 26.9538C18.9384 26.7519 18.5434 26.6521 18.0059 26.6521H16.5491V29.1486Z" fill="white"/>
<path d="M28.2888 32.9509C28.0458 33.4103 27.7082 33.7577 27.2737 33.9941C26.8404 34.2293 26.3269 34.3476 25.7343 34.3476C24.8784 34.3476 24.2129 34.0532 23.7353 33.4644C23.2576 32.8758 23.0195 32.0517 23.0195 30.9926C23.0195 29.932 23.2576 29.1044 23.733 28.5083C24.2082 27.9121 24.8677 27.614 25.7116 27.614C26.5507 27.614 27.2031 27.9022 27.6663 28.4787C28.1296 29.0552 28.3618 29.8656 28.3618 30.9088C28.3618 30.9445 28.3594 31 28.3558 31.0751C28.3522 31.1502 28.3499 31.2056 28.3499 31.2413L24.5122 31.2474C24.5206 31.8596 24.6379 32.3203 24.8641 32.6294C25.0903 32.9386 25.4267 33.0913 25.8732 33.0913C26.1521 33.0913 26.3939 33.026 26.5986 32.8942C26.8033 32.7637 26.9972 32.5506 27.1804 32.2562L28.2888 32.9509ZM24.535 30.1402H26.8739C26.8739 29.7091 26.771 29.3729 26.5638 29.1303C26.3568 28.8888 26.0719 28.7682 25.7104 28.7682C25.368 28.7682 25.0951 28.8876 24.8893 29.1278C24.6834 29.368 24.5672 29.7055 24.535 30.1402Z" fill="white"/>
<path d="M30.5293 34.2269V25.2258H33.2454C34.6184 25.2258 35.655 25.6027 36.3576 26.3565C37.0603 27.1103 37.411 28.2225 37.411 29.6931C37.411 31.2006 37.0579 32.3325 36.3517 33.09C35.6454 33.8475 34.5884 34.2269 33.1796 34.2269H30.5293ZM32.2064 32.7402H33.1197C34.0342 32.7402 34.695 32.5012 35.1008 32.0234C35.5065 31.5455 35.71 30.7683 35.71 29.6931C35.71 28.6732 35.4993 27.9244 35.078 27.4441C34.6566 26.9649 33.9959 26.7248 33.097 26.7248H32.2075V32.7402H32.2064Z" fill="white"/>
<path d="M39.7092 34.2269V25.2258H42.8838C43.93 25.2258 44.7104 25.4462 45.2228 25.8872C45.7351 26.3281 45.9925 26.9982 45.9925 27.8973C45.9925 28.7755 45.7423 29.4443 45.2407 29.9012C44.7392 30.3582 44.0078 30.5873 43.0442 30.5873H41.3971V34.2269H39.7092ZM41.3971 29.161H42.6384C43.2513 29.161 43.6834 29.0637 43.936 28.8703C44.1886 28.677 44.3154 28.353 44.3154 27.8973C44.3154 27.4379 44.1886 27.1116 43.936 26.9181C43.6834 26.7248 43.2501 26.6275 42.6384 26.6275H41.3971V29.161Z" fill="white"/>
<path d="M52.4581 32.9509C52.215 33.4103 51.8775 33.7577 51.443 33.9941C51.0097 34.2293 50.4961 34.3476 49.9036 34.3476C49.0477 34.3476 48.3822 34.0532 47.9046 33.4644C47.4269 32.8758 47.1887 32.0517 47.1887 30.9926C47.1887 29.932 47.4269 29.1044 47.9021 28.5083C48.3774 27.9121 49.037 27.614 49.8809 27.614C50.72 27.614 51.3723 27.9022 51.8356 28.4787C52.2989 29.0552 52.5311 29.8656 52.5311 30.9088C52.5311 30.9445 52.5287 31 52.5251 31.0751C52.5215 31.1502 52.5192 31.2056 52.5192 31.2413L48.6815 31.2474C48.6899 31.8596 48.8071 32.3203 49.0334 32.6294C49.2596 32.9386 49.5959 33.0913 50.0425 33.0913C50.3214 33.0913 50.5632 33.026 50.7679 32.8942C50.9726 32.7637 51.1664 32.5506 51.3497 32.2562L52.4581 32.9509ZM48.7042 30.1402H51.0432C51.0432 29.7091 50.9403 29.3729 50.7331 29.1303C50.5261 28.8876 50.2412 28.7682 49.8797 28.7682C49.5373 28.7682 49.2644 28.8876 49.0585 29.1278C48.8539 29.368 48.7353 29.7055 48.7042 30.1402Z" fill="white"/>
<path d="M56.2722 34.2269V26.7125H53.9392V25.2258H60.2955V26.7125H57.9625V34.2269H56.2722Z" fill="white"/>
<path d="M63.9243 34.2269V26.7125H61.5913V25.2258H67.9476V26.7125H65.6146V34.2269H63.9243Z" fill="white"/>
<path d="M32.446 53.1737V40.8989H40.0962V42.8942H34.7491V45.78H38.7938V47.7753H34.7491V53.175H32.446V53.1737Z" fill="white"/>
<path d="M42.9456 53.1737V40.8989H45.2654V51.0799H50.3767V53.1737H42.9456Z" fill="white"/>
<path d="M86.2486 84.8607H42.6551C42.308 84.8607 42.0278 84.5712 42.0278 84.2153V57.9316C42.0278 57.5744 42.3092 57.2861 42.6551 57.2861H86.2486C86.5957 57.2861 86.8757 57.5756 86.8757 57.9316V84.2153C86.8757 84.5712 86.5957 84.8607 86.2486 84.8607Z" fill="#2661A5"/>
<path fill-rule="evenodd" clip-rule="evenodd" d="M42.6923 57.9697V84.1771H86.2114V57.9697H42.6923ZM41.3635 57.9315C41.3635 57.196 41.9431 56.6025 42.6551 56.6025H86.2486C86.9634 56.6025 87.5401 57.1989 87.5401 57.9315V84.2152C87.5401 84.948 86.9634 85.5443 86.2486 85.5443H42.6551C41.9402 85.5443 41.3635 84.948 41.3635 84.2152V57.9315Z" fill="white"/>
<path d="M56.6398 74.3608C56.3991 75.4483 55.918 77.1689 55.6031 77.9621C55.1219 78.0977 53.4185 78.5509 52.1581 78.5509C47.2323 78.5509 45.1758 74.633 45.1758 71.0315C45.1758 66.3882 48.1013 63.1489 52.5279 63.1489C54.0279 63.1489 55.3984 63.6243 55.8988 63.761C56.0652 65.0062 56.1957 66.0483 56.3249 67.4758L55.6403 67.6347C55.0286 64.9398 53.6029 64.1465 52.1772 64.1465C49.4923 64.1465 48.0103 67.2491 48.0103 70.5796C48.0103 74.7475 49.8442 77.488 52.3628 77.488C53.8998 77.488 55.0477 76.2871 55.9922 73.9999L56.6398 74.3608Z" fill="white"/>
<path d="M63.2695 63.4888C65.5845 63.4888 67.3813 64.0554 68.5843 65.4594C69.4917 66.5236 70.2135 68.1321 70.2135 70.2617C70.2135 73.0256 69.3061 74.9962 67.8984 76.3325C66.5277 77.6012 64.6018 78.2121 62.2867 78.2121H57.5273V77.4189C58.9901 77.26 59.1756 77.1023 59.1756 75.1761V66.5236C59.1756 64.575 59.0093 64.4396 57.6937 64.2807V63.4875H63.2695V63.4888ZM61.6594 75.0406C61.6594 76.6713 61.9371 77.2379 63.2336 77.2379C65.715 77.2379 67.4184 74.7462 67.4184 70.7149C67.4184 68.5633 66.881 66.8414 66.0478 65.8228C65.2697 64.8941 64.2882 64.4187 63.0289 64.4187C62.3621 64.4187 61.9731 64.5997 61.8617 64.7353C61.6954 64.9396 61.6582 65.3239 61.6582 65.9805V75.0406H61.6594Z" fill="white"/>
<path d="M83.5851 74.3608C83.3444 75.4483 82.8633 77.169 82.5484 77.9621C82.0672 78.0977 80.3627 78.5509 79.1034 78.5509C74.1776 78.5509 72.1211 74.633 72.1211 71.0316C72.1211 66.3882 75.0466 63.1489 79.4732 63.1489C80.9732 63.1489 82.3437 63.6243 82.8441 63.761C83.0105 65.0062 83.1398 66.0483 83.2702 67.4758L82.5856 67.6347C81.9739 64.9398 80.5482 64.1465 79.1226 64.1465C76.4376 64.1465 74.9556 67.2491 74.9556 70.5796C74.9556 74.7476 76.7895 77.488 79.3081 77.488C80.8451 77.488 81.993 76.2872 82.9375 73.9999L83.5851 74.3608Z" fill="white"/>
<path fill-rule="evenodd" clip-rule="evenodd" d="M45.4631 84.7651L47.3903 57.262L47.5796 57.2759L45.6524 84.779L45.4631 84.7651Z" fill="white"/>
<path fill-rule="evenodd" clip-rule="evenodd" d="M47.0107 84.6506L50.6305 57.2361L50.8186 57.2624L47.1988 84.6768L47.0107 84.6506Z" fill="white"/>
<path fill-rule="evenodd" clip-rule="evenodd" d="M48.425 85.0511L53.8919 56.7966L54.078 56.8348L48.6111 85.0892L48.425 85.0511Z" fill="white"/>
<path fill-rule="evenodd" clip-rule="evenodd" d="M49.6575 85.2064L57.8644 57.7649L58.0458 57.8223L49.8389 85.2638L49.6575 85.2064Z" fill="white"/>
<path fill-rule="evenodd" clip-rule="evenodd" d="M51.6785 84.7017L61.2775 57.4399L61.456 57.5065L51.8569 84.7682L51.6785 84.7017Z" fill="white"/>
<path fill-rule="evenodd" clip-rule="evenodd" d="M52.9873 84.7159L65.6435 57.6562L65.8146 57.7409L53.1583 84.8006L52.9873 84.7159Z" fill="white"/>
<path fill-rule="evenodd" clip-rule="evenodd" d="M55.782 84.8997L72.2352 57.0764L72.3973 57.178L55.9442 85.0013L55.782 84.8997Z" fill="white"/>
<path fill-rule="evenodd" clip-rule="evenodd" d="M57.8989 85.0828L78.2066 57.3789L78.3582 57.4965L58.0505 85.2004L57.8989 85.0828Z" fill="white"/>
<path fill-rule="evenodd" clip-rule="evenodd" d="M61.1509 84.5023L85.672 57.3699L85.811 57.5029L61.2899 84.6353L61.1509 84.5023Z" fill="white"/>
<path fill-rule="evenodd" clip-rule="evenodd" d="M65.6406 84.6767L86.3899 66.5071L86.513 66.6558L65.7636 84.8254L65.6406 84.6767Z" fill="white"/>
<path fill-rule="evenodd" clip-rule="evenodd" d="M71.918 84.4875L86.2523 74.5972L86.3581 74.7595L72.0237 84.6497L71.918 84.4875Z" fill="white"/>
<path d="M88.7378 85.7191C88.7162 85.6969 88.7055 85.6625 88.7055 85.6182V83.5699H88.0675C88.0184 83.5699 87.9861 83.5601 87.967 83.5404C87.949 83.5206 87.9395 83.4861 87.9395 83.4393V83.3383C87.9395 83.2903 87.949 83.2558 87.967 83.2349C87.9849 83.2139 88.0184 83.2029 88.0675 83.2029H89.8104C89.8594 83.2029 89.8929 83.2139 89.9122 83.2349C89.9313 83.2558 89.9408 83.2903 89.9408 83.3383V83.4393C89.9408 83.4874 89.9313 83.5206 89.9122 83.5404C89.8929 83.5601 89.8583 83.5699 89.8104 83.5699H89.1723V85.6182C89.1723 85.6637 89.1616 85.6969 89.1412 85.7191C89.1209 85.7413 89.0849 85.7524 89.0335 85.7524H88.8444C88.7953 85.7536 88.7606 85.7426 88.7378 85.7191Z" fill="#2661A5"/>
<path d="M90.202 85.7191C90.1816 85.6969 90.1709 85.6625 90.1709 85.6182V83.3408C90.1709 83.294 90.1816 83.2583 90.202 83.2361C90.2223 83.2139 90.2583 83.2029 90.3097 83.2029H90.506C90.5444 83.2029 90.5742 83.2078 90.5958 83.2177C90.6174 83.2275 90.6329 83.2473 90.6449 83.278L91.3811 85.022L92.1173 83.278C92.1292 83.2484 92.1459 83.2275 92.1663 83.2177C92.1866 83.2078 92.2166 83.2029 92.2561 83.2029H92.4536C92.5051 83.2029 92.541 83.2139 92.5613 83.2361C92.5817 83.2583 92.5925 83.294 92.5925 83.3408V85.6182C92.5925 85.6637 92.5817 85.6969 92.5613 85.7191C92.541 85.7413 92.5062 85.7525 92.4572 85.7525H92.2968C92.2477 85.7525 92.213 85.7413 92.1915 85.7191C92.1699 85.6969 92.1591 85.6625 92.1591 85.6182V84.001L91.5355 85.4309C91.5163 85.4716 91.496 85.5 91.4769 85.5171C91.4577 85.5344 91.4253 85.543 91.3823 85.543C91.338 85.543 91.3069 85.5344 91.2853 85.5171C91.265 85.5 91.2458 85.4704 91.229 85.4309L90.6054 84.001V85.6182C90.6054 85.6637 90.5946 85.6969 90.5742 85.7191C90.5539 85.7413 90.518 85.7525 90.4665 85.7525H90.3061C90.2583 85.7536 90.2235 85.7426 90.202 85.7191Z" fill="#2661A5"/>
</svg>
