<svg width="831" height="47" viewBox="0 0 831 47" fill="none" xmlns="http://www.w3.org/2000/svg">
<path fill-rule="evenodd" clip-rule="evenodd" d="M829.096 46.7574C825.673 35.5274 815.232 27.3574 802.883 27.3574H443.738C442.518 27.3574 441.348 26.8727 440.485 26.01L416.485 2.01005C415.938 1.46332 415.052 1.46332 414.505 2.01005L390.505 26.01C389.643 26.8727 388.473 27.3574 387.253 27.3574H27.8825C15.533 27.3574 5.09167 35.5274 1.6688 46.7574H0C3.47262 34.6318 14.6412 25.7574 27.8825 25.7574H387.253C388.048 25.7574 388.811 25.4413 389.374 24.8787L413.374 0.878681C414.545 -0.292892 416.445 -0.292894 417.616 0.878678L441.616 24.8787C442.179 25.4413 442.942 25.7574 443.738 25.7574H802.883C816.124 25.7574 827.292 34.6318 830.765 46.7574H829.096Z" fill="black"/>
</svg>
