<svg width="7" height="12" viewBox="0 0 7 12" fill="none" xmlns="http://www.w3.org/2000/svg">
<path d="M0.725 0.774999C0.908334 0.591666 1.14167 0.5 1.425 0.5C1.70833 0.5 1.94167 0.591666 2.125 0.774999L6.725 5.375C6.825 5.475 6.896 5.58333 6.938 5.7C6.97933 5.81667 7 5.94167 7 6.075C7 6.20833 6.975 6.33767 6.925 6.463C6.875 6.58767 6.80833 6.69167 6.725 6.775L2.125 11.375C1.94167 11.5583 1.70833 11.65 1.425 11.65C1.14167 11.65 0.908333 11.5583 0.725 11.375C0.541667 11.1917 0.449999 10.9583 0.449999 10.675C0.449999 10.3917 0.541667 10.1583 0.725 9.975L4.625 6.075L0.725 2.175C0.541667 1.99167 0.45 1.75833 0.45 1.475C0.45 1.19167 0.541667 0.958333 0.725 0.774999Z" fill="white"/>
</svg>
